# xmcd CD database file
#
# Track frame offsets:
#	150
#	15557
#	32280
#	48497
#	65432
#	80905
#	95785
#	111627
#	132487
#	148535
#	165517
#	182260
#	199080
#	216065
#
# Disc length: 3079 seconds
#
# Revision: 0
# Processed by: cddbd v1.5PL3 Copyright (c) Steve Scherf et al.
# Submitted via: CDex 1.50beta10
#
DISCID=c50c050e
DTITLE=太田貴子 - Creamy Takako Special
DYEAR=1985
DGENRE=J-Pop
TTITLE0=デリケートに好きして
TTITLE1=彼を愛したロンリー・キャット
TTITLE2=囁いてジュ・テーム
TTITLE3=再会イン・ザ・レイン
TTITLE4=パジャマのままで
TTITLE5=LOVEさりげなく
TTITLE6=あなたに一番効く薬
TTITLE7=FOR YOU-愛あなたに-
TTITLE8=もう天使じゃない
TTITLE9=BIN・KANルージュ
TTITLE10=美衝撃
TTITLE11=美人物語
TTITLE12=夏にあわてないで
TTITLE13=天使のミラクル
EXTD=YEAR: 1985
EXTT0=
EXTT1=
EXTT2=
EXTT3=
EXTT4=
EXTT5=
EXTT6=
EXTT7=
EXTT8=
EXTT9=
EXTT10=
EXTT11=
EXTT12=
EXTT13=
PLAYORDER=
